<svg width="66" height="66" viewBox="0 0 66 66" fill="none" xmlns="http://www.w3.org/2000/svg">
<rect width="66" height="66" rx="4" fill="#FFFBEB"/>
<mask id="mask0_1922_6929" style="mask-type:alpha" maskUnits="userSpaceOnUse" x="17" y="17" width="32" height="32">
<rect x="17" y="17" width="32" height="32" fill="#D9D9D9"/>
</mask>
<g mask="url(#mask0_1922_6929)">
<path d="M37 45L29 42.2L22.8 44.6C22.3556 44.7778 21.9444 44.7278 21.5667 44.45C21.1889 44.1722 21 43.8 21 43.3333V24.6667C21 24.3778 21.0833 24.1222 21.25 23.9C21.4167 23.6778 21.6444 23.5111 21.9333 23.4L29 21L37 23.8L43.2 21.4C43.6444 21.2222 44.0556 21.2722 44.4333 21.55C44.8111 21.8278 45 22.2 45 22.6667V41.3333C45 41.6222 44.9167 41.8778 44.75 42.1C44.5833 42.3222 44.3556 42.4889 44.0667 42.6L37 45ZM35.6667 41.7333V26.1333L30.3333 24.2667V39.8667L35.6667 41.7333ZM38.3333 41.7333L42.3333 40.4V24.6L38.3333 26.1333V41.7333ZM23.6667 41.4L27.6667 39.8667V24.2667L23.6667 25.6V41.4Z" fill="#D97706"/>
</g>
</svg>
